3.0Hz3min_grf.mot
version=1
nRows=12
nColumns 19
inDegrees=yes
endheader
time	1_ground_force_vx	1_ground_force_vy	1_ground_force_vz	1_ground_force_px	1_ground_force_py	1_ground_force_pz	1_ground_torque_x	1_ground_torque_y	1_ground_torque_z	2_ground_force_vx	2_ground_force_vy	2_ground_force_vz	2_ground_force_px	2_ground_force_py	2_ground_force_pz	2_ground_torque_x	2_ground_torque_y	2_ground_torque_z
            2.502500	           14.738369	          746.481311	          -80.525178	           -0.177340	            0.006138	           -0.383055	            0.034766	            1.760865	           -0.189950	           26.163151	          654.057870	           93.175224	           -0.195342	            0.005895	           -0.730282	            0.023924	            0.598092	            0.085202
            2.503000	           14.553514	          747.745390	          -81.023730	           -0.177383	            0.006139	           -0.383273	            0.032498	            1.669699	           -0.180924	           25.688547	          655.714510	           92.899768	           -0.195296	            0.005895	           -0.730314	            0.024378	            0.622270	            0.088161
            2.503500	           14.415689	          749.367663	          -81.016433	           -0.177442	            0.006139	           -0.383372	            0.031549	            1.640003	           -0.177306	           25.165848	          657.738593	           92.813358	           -0.195143	            0.005895	           -0.730264	            0.022215	            0.580613	            0.081930
            2.504000	           14.415198	          750.810182	          -81.101969	           -0.177484	            0.006139	           -0.383308	            0.030197	            1.572779	           -0.169890	           25.114241	          659.028307	           92.583345	           -0.195183	            0.005894	           -0.730077	            0.016244	            0.426275	            0.059885
            2.504500	           14.277831	          751.170354	          -81.008362	           -0.177346	            0.006139	           -0.383443	            0.029648	            1.559835	           -0.168217	           24.410124	          659.394385	           92.491102	           -0.194989	            0.005895	           -0.729941	            0.013259	            0.358178	            0.050241
            2.505000	           14.505887	          753.154667	          -81.321423	           -0.177456	            0.006139	           -0.383367	            0.033269	            1.727350	           -0.186510	           24.130916	          658.841724	           92.254602	           -0.194829	            0.005894	           -0.729545	            0.010549	            0.288022	            0.040330
            2.505500	           14.414753	          753.874532	          -81.042961	           -0.177253	            0.006140	           -0.383576	            0.034774	            1.818658	           -0.195509	           23.558563	          661.603494	           91.842352	           -0.194783	            0.005895	           -0.729782	            0.009788	            0.274883	            0.038159
            2.506000	           14.414229	          755.497347	          -81.127723	           -0.177389	            0.006139	           -0.383453	            0.035844	            1.878726	           -0.201744	           23.222575	          663.812500	           91.709584	           -0.194780	            0.005895	           -0.729756	            0.012260	            0.350443	            0.048416
            2.506500	           14.230791	          755.857782	          -81.125723	           -0.177415	            0.006140	           -0.383668	            0.033808	            1.795666	           -0.192728	           22.756028	          663.258783	           91.613956	           -0.194554	            0.005895	           -0.729697	            0.012595	            0.367104	            0.050707
            2.507000	           14.139069	          757.299496	          -81.027592	           -0.177458	            0.006140	           -0.383543	            0.032747	            1.753940	           -0.187664	           22.237817	          663.995158	           91.147522	           -0.194554	            0.005895	           -0.729505	            0.010173	            0.303754	            0.041697
            2.507500	           14.048459	          756.396669	          -80.664381	           -0.177179	            0.006141	           -0.383801	            0.032027	            1.724392	           -0.183894	           21.953936	          664.731710	           90.868701	           -0.194599	            0.005894	           -0.729373	            0.006040	            0.182872	            0.024999
            2.508000	           14.094185	          757.658310	          -80.613233	           -0.177330	            0.006140	           -0.383705	            0.033993	            1.827381	           -0.194430	           21.344200	          664.913880	           90.822697	           -0.194374	            0.005895	           -0.729264	            0.004464	            0.139073	            0.018996
